<mxfile host="app.diagrams.net" modified="2022-02-24T04:33:51.274Z" agent="5.0 (Windows NT 10.0; Win64; x64) AppleWebKit/537.36 (KHTML, like Gecko) Chrome/98.0.4758.102 Safari/537.36" etag="3BkRhRz_MBqTOVrO05Mw" version="16.6.3" type="github">
  <diagram name="Page-1" id="42789a77-a242-8287-6e28-9cd8cfd52e62">
    <mxGraphModel dx="1422" dy="754" grid="1" gridSize="10" guides="1" tooltips="1" connect="1" arrows="1" fold="1" page="1" pageScale="1" pageWidth="4681" pageHeight="3300" background="none" math="0" shadow="0">
      <root>
        <mxCell id="0" />
        <mxCell id="1" parent="0" />
        <mxCell id="1ea317790d2ca983-12" style="edgeStyle=none;rounded=1;html=1;labelBackgroundColor=none;startArrow=none;startFill=0;startSize=5;endArrow=classicThin;endFill=1;endSize=5;jettySize=auto;orthogonalLoop=1;strokeColor=#B3B3B3;strokeWidth=1;fontFamily=Verdana;fontSize=12" parent="1" source="1ea317790d2ca983-1" target="1ea317790d2ca983-2" edge="1">
          <mxGeometry relative="1" as="geometry" />
        </mxCell>
        <mxCell id="1ea317790d2ca983-1" value="Entry Main Gate" style="ellipse;whiteSpace=wrap;html=1;rounded=0;shadow=1;comic=0;labelBackgroundColor=none;strokeWidth=1;fontFamily=Verdana;fontSize=12;align=center;" parent="1" vertex="1">
          <mxGeometry x="460" y="1720" width="90" height="60" as="geometry" />
        </mxCell>
        <mxCell id="1ea317790d2ca983-2" value="&lt;span&gt;Entry Gate 1&lt;/span&gt;" style="ellipse;whiteSpace=wrap;html=1;rounded=0;shadow=1;comic=0;labelBackgroundColor=none;strokeWidth=1;fontFamily=Verdana;fontSize=12;align=center;" parent="1" vertex="1">
          <mxGeometry x="467.5" y="1570" width="75" height="50" as="geometry" />
        </mxCell>
        <mxCell id="1ea317790d2ca983-6" value="&lt;span&gt;Staue&lt;/span&gt;" style="ellipse;whiteSpace=wrap;html=1;rounded=0;shadow=1;comic=0;labelBackgroundColor=none;strokeWidth=1;fontFamily=Verdana;fontSize=12;align=center;fillColor=#ffe6cc;strokeColor=#d79b00;" parent="1" vertex="1">
          <mxGeometry x="467.5" y="1440" width="75" height="50" as="geometry" />
        </mxCell>
        <mxCell id="r8p-rTUP_P2dbKx-3tGq-9" value="" style="edgeStyle=none;rounded=0;orthogonalLoop=1;jettySize=auto;html=1;" edge="1" parent="1" source="r8p-rTUP_P2dbKx-3tGq-3" target="r8p-rTUP_P2dbKx-3tGq-8">
          <mxGeometry relative="1" as="geometry" />
        </mxCell>
        <mxCell id="r8p-rTUP_P2dbKx-3tGq-16" value="" style="edgeStyle=none;rounded=0;orthogonalLoop=1;jettySize=auto;html=1;" edge="1" parent="1" source="r8p-rTUP_P2dbKx-3tGq-3" target="r8p-rTUP_P2dbKx-3tGq-15">
          <mxGeometry relative="1" as="geometry" />
        </mxCell>
        <mxCell id="r8p-rTUP_P2dbKx-3tGq-3" value="Square" style="rounded=1;whiteSpace=wrap;html=1;fillColor=#dae8fc;strokeColor=#6c8ebf;" vertex="1" parent="1">
          <mxGeometry x="445" y="1280" width="120" height="60" as="geometry" />
        </mxCell>
        <mxCell id="r8p-rTUP_P2dbKx-3tGq-11" value="" style="edgeStyle=none;rounded=0;orthogonalLoop=1;jettySize=auto;html=1;" edge="1" parent="1" source="r8p-rTUP_P2dbKx-3tGq-8" target="r8p-rTUP_P2dbKx-3tGq-10">
          <mxGeometry relative="1" as="geometry" />
        </mxCell>
        <mxCell id="r8p-rTUP_P2dbKx-3tGq-8" value="Guest House entrance" style="ellipse;whiteSpace=wrap;html=1;fillColor=#dae8fc;strokeColor=#6c8ebf;rounded=1;" vertex="1" parent="1">
          <mxGeometry x="645" y="1280" width="120" height="60" as="geometry" />
        </mxCell>
        <mxCell id="r8p-rTUP_P2dbKx-3tGq-10" value="Guest House &lt;br&gt;Lobby" style="ellipse;whiteSpace=wrap;html=1;fillColor=#dae8fc;strokeColor=#6c8ebf;rounded=1;" vertex="1" parent="1">
          <mxGeometry x="845" y="1280" width="120" height="60" as="geometry" />
        </mxCell>
        <mxCell id="r8p-rTUP_P2dbKx-3tGq-13" value="" style="endArrow=classic;startArrow=classic;html=1;rounded=0;entryX=0.5;entryY=1;entryDx=0;entryDy=0;exitX=0.5;exitY=0;exitDx=0;exitDy=0;" edge="1" parent="1" source="1ea317790d2ca983-6" target="r8p-rTUP_P2dbKx-3tGq-3">
          <mxGeometry width="50" height="50" relative="1" as="geometry">
            <mxPoint x="550" y="1620" as="sourcePoint" />
            <mxPoint x="600" y="1570" as="targetPoint" />
          </mxGeometry>
        </mxCell>
        <mxCell id="r8p-rTUP_P2dbKx-3tGq-14" value="" style="endArrow=classic;startArrow=classic;html=1;rounded=0;exitX=0.5;exitY=0;exitDx=0;exitDy=0;entryX=0.5;entryY=1;entryDx=0;entryDy=0;" edge="1" parent="1" source="1ea317790d2ca983-2" target="1ea317790d2ca983-6">
          <mxGeometry width="50" height="50" relative="1" as="geometry">
            <mxPoint x="550" y="1730" as="sourcePoint" />
            <mxPoint x="600" y="1680" as="targetPoint" />
          </mxGeometry>
        </mxCell>
        <mxCell id="r8p-rTUP_P2dbKx-3tGq-18" value="" style="edgeStyle=none;rounded=0;orthogonalLoop=1;jettySize=auto;html=1;" edge="1" parent="1" source="r8p-rTUP_P2dbKx-3tGq-15" target="r8p-rTUP_P2dbKx-3tGq-17">
          <mxGeometry relative="1" as="geometry" />
        </mxCell>
        <mxCell id="r8p-rTUP_P2dbKx-3tGq-15" value="Admin entrance" style="ellipse;whiteSpace=wrap;html=1;fillColor=#dae8fc;strokeColor=#6c8ebf;rounded=1;" vertex="1" parent="1">
          <mxGeometry x="446" y="1140" width="120" height="60" as="geometry" />
        </mxCell>
        <mxCell id="r8p-rTUP_P2dbKx-3tGq-52" style="edgeStyle=none;rounded=0;orthogonalLoop=1;jettySize=auto;html=1;entryX=1;entryY=0.167;entryDx=0;entryDy=0;entryPerimeter=0;fontColor=#000000;" edge="1" parent="1" source="r8p-rTUP_P2dbKx-3tGq-17" target="r8p-rTUP_P2dbKx-3tGq-32">
          <mxGeometry relative="1" as="geometry" />
        </mxCell>
        <mxCell id="r8p-rTUP_P2dbKx-3tGq-55" value="" style="edgeStyle=none;rounded=0;orthogonalLoop=1;jettySize=auto;html=1;fontColor=#000000;" edge="1" parent="1" source="r8p-rTUP_P2dbKx-3tGq-17" target="r8p-rTUP_P2dbKx-3tGq-54">
          <mxGeometry relative="1" as="geometry" />
        </mxCell>
        <mxCell id="r8p-rTUP_P2dbKx-3tGq-69" style="edgeStyle=none;rounded=0;orthogonalLoop=1;jettySize=auto;html=1;entryX=0;entryY=0.5;entryDx=0;entryDy=0;fontColor=#000000;" edge="1" parent="1" target="r8p-rTUP_P2dbKx-3tGq-68">
          <mxGeometry relative="1" as="geometry">
            <mxPoint x="510" y="930" as="sourcePoint" />
          </mxGeometry>
        </mxCell>
        <mxCell id="r8p-rTUP_P2dbKx-3tGq-17" value="Admin Pole" style="whiteSpace=wrap;html=1;fillColor=#dae8fc;strokeColor=#6c8ebf;rounded=1;" vertex="1" parent="1">
          <mxGeometry x="446" y="1000" width="120" height="60" as="geometry" />
        </mxCell>
        <mxCell id="r8p-rTUP_P2dbKx-3tGq-21" value="V.C" style="swimlane;fontStyle=0;childLayout=stackLayout;horizontal=1;startSize=30;horizontalStack=0;resizeParent=1;resizeParentMax=0;resizeLast=0;collapsible=1;marginBottom=0;" vertex="1" parent="1">
          <mxGeometry x="690" y="970" width="140" height="120" as="geometry" />
        </mxCell>
        <mxCell id="r8p-rTUP_P2dbKx-3tGq-22" value="Ground Floor" style="text;strokeColor=none;fillColor=none;align=left;verticalAlign=middle;spacingLeft=4;spacingRight=4;overflow=hidden;points=[[0,0.5],[1,0.5]];portConstraint=eastwest;rotatable=0;fontColor=#FF8000;" vertex="1" parent="r8p-rTUP_P2dbKx-3tGq-21">
          <mxGeometry y="30" width="140" height="30" as="geometry" />
        </mxCell>
        <mxCell id="r8p-rTUP_P2dbKx-3tGq-23" value="First Floor" style="text;strokeColor=none;fillColor=none;align=left;verticalAlign=middle;spacingLeft=4;spacingRight=4;overflow=hidden;points=[[0,0.5],[1,0.5]];portConstraint=eastwest;rotatable=0;" vertex="1" parent="r8p-rTUP_P2dbKx-3tGq-21">
          <mxGeometry y="60" width="140" height="30" as="geometry" />
        </mxCell>
        <mxCell id="r8p-rTUP_P2dbKx-3tGq-24" value="Second Floor" style="text;strokeColor=none;fillColor=none;align=left;verticalAlign=middle;spacingLeft=4;spacingRight=4;overflow=hidden;points=[[0,0.5],[1,0.5]];portConstraint=eastwest;rotatable=0;" vertex="1" parent="r8p-rTUP_P2dbKx-3tGq-21">
          <mxGeometry y="90" width="140" height="30" as="geometry" />
        </mxCell>
        <mxCell id="r8p-rTUP_P2dbKx-3tGq-25" value="" style="endArrow=classic;html=1;rounded=0;entryX=-0.021;entryY=-0.067;entryDx=0;entryDy=0;entryPerimeter=0;" edge="1" parent="1" target="r8p-rTUP_P2dbKx-3tGq-23">
          <mxGeometry width="50" height="50" relative="1" as="geometry">
            <mxPoint x="570" y="1030" as="sourcePoint" />
            <mxPoint x="680" y="1030" as="targetPoint" />
          </mxGeometry>
        </mxCell>
        <mxCell id="r8p-rTUP_P2dbKx-3tGq-30" value="Registrar Office" style="swimlane;fontStyle=0;childLayout=stackLayout;horizontal=1;startSize=30;horizontalStack=0;resizeParent=1;resizeParentMax=0;resizeLast=0;collapsible=1;marginBottom=0;" vertex="1" parent="1">
          <mxGeometry x="130" y="970" width="140" height="120" as="geometry" />
        </mxCell>
        <mxCell id="r8p-rTUP_P2dbKx-3tGq-31" value="Ground foor" style="text;strokeColor=none;fillColor=none;align=left;verticalAlign=middle;spacingLeft=4;spacingRight=4;overflow=hidden;points=[[0,0.5],[1,0.5]];portConstraint=eastwest;rotatable=0;" vertex="1" parent="r8p-rTUP_P2dbKx-3tGq-30">
          <mxGeometry y="30" width="140" height="30" as="geometry" />
        </mxCell>
        <mxCell id="r8p-rTUP_P2dbKx-3tGq-32" value="First Fllor" style="text;strokeColor=none;fillColor=none;align=left;verticalAlign=middle;spacingLeft=4;spacingRight=4;overflow=hidden;points=[[0,0.5],[1,0.5]];portConstraint=eastwest;rotatable=0;" vertex="1" parent="r8p-rTUP_P2dbKx-3tGq-30">
          <mxGeometry y="60" width="140" height="30" as="geometry" />
        </mxCell>
        <mxCell id="r8p-rTUP_P2dbKx-3tGq-33" value="Second Floor" style="text;strokeColor=none;fillColor=none;align=left;verticalAlign=middle;spacingLeft=4;spacingRight=4;overflow=hidden;points=[[0,0.5],[1,0.5]];portConstraint=eastwest;rotatable=0;" vertex="1" parent="r8p-rTUP_P2dbKx-3tGq-30">
          <mxGeometry y="90" width="140" height="30" as="geometry" />
        </mxCell>
        <mxCell id="r8p-rTUP_P2dbKx-3tGq-37" style="edgeStyle=none;rounded=0;orthogonalLoop=1;jettySize=auto;html=1;fontColor=#FF8000;exitX=1;exitY=0.5;exitDx=0;exitDy=0;" edge="1" parent="1" source="r8p-rTUP_P2dbKx-3tGq-22" target="r8p-rTUP_P2dbKx-3tGq-38">
          <mxGeometry relative="1" as="geometry">
            <mxPoint x="940" y="1010" as="targetPoint" />
          </mxGeometry>
        </mxCell>
        <mxCell id="r8p-rTUP_P2dbKx-3tGq-49" value="" style="edgeStyle=none;rounded=0;orthogonalLoop=1;jettySize=auto;html=1;fontColor=#000000;entryX=0;entryY=0.5;entryDx=0;entryDy=0;" edge="1" parent="1" source="r8p-rTUP_P2dbKx-3tGq-38" target="r8p-rTUP_P2dbKx-3tGq-48">
          <mxGeometry relative="1" as="geometry" />
        </mxCell>
        <mxCell id="r8p-rTUP_P2dbKx-3tGq-38" value="&lt;font color=&quot;#000000&quot;&gt;Lobby&lt;/font&gt;" style="ellipse;whiteSpace=wrap;html=1;fillColor=#fff2cc;strokeColor=#d6b656;" vertex="1" parent="1">
          <mxGeometry x="910" y="900" width="120" height="80" as="geometry" />
        </mxCell>
        <mxCell id="r8p-rTUP_P2dbKx-3tGq-39" style="edgeStyle=none;rounded=0;orthogonalLoop=1;jettySize=auto;html=1;fontColor=#FF8000;exitX=1;exitY=0.267;exitDx=0;exitDy=0;exitPerimeter=0;" edge="1" parent="1" source="r8p-rTUP_P2dbKx-3tGq-23" target="r8p-rTUP_P2dbKx-3tGq-40">
          <mxGeometry relative="1" as="geometry">
            <mxPoint x="920" y="1038" as="targetPoint" />
          </mxGeometry>
        </mxCell>
        <mxCell id="r8p-rTUP_P2dbKx-3tGq-51" value="" style="edgeStyle=none;rounded=0;orthogonalLoop=1;jettySize=auto;html=1;fontColor=#000000;entryX=0;entryY=0.5;entryDx=0;entryDy=0;" edge="1" parent="1" source="r8p-rTUP_P2dbKx-3tGq-40" target="r8p-rTUP_P2dbKx-3tGq-50">
          <mxGeometry relative="1" as="geometry" />
        </mxCell>
        <mxCell id="r8p-rTUP_P2dbKx-3tGq-40" value="Lobby" style="ellipse;whiteSpace=wrap;html=1;fillColor=#fff2cc;strokeColor=#d6b656;" vertex="1" parent="1">
          <mxGeometry x="920" y="990" width="120" height="80" as="geometry" />
        </mxCell>
        <mxCell id="r8p-rTUP_P2dbKx-3tGq-41" style="edgeStyle=none;rounded=0;orthogonalLoop=1;jettySize=auto;html=1;fontColor=#000000;exitX=1;exitY=0.5;exitDx=0;exitDy=0;entryX=0;entryY=0.5;entryDx=0;entryDy=0;" edge="1" parent="1" source="r8p-rTUP_P2dbKx-3tGq-24" target="r8p-rTUP_P2dbKx-3tGq-42">
          <mxGeometry relative="1" as="geometry">
            <mxPoint x="920" y="1130" as="targetPoint" />
          </mxGeometry>
        </mxCell>
        <mxCell id="r8p-rTUP_P2dbKx-3tGq-43" style="edgeStyle=none;rounded=0;orthogonalLoop=1;jettySize=auto;html=1;fontColor=#000000;" edge="1" parent="1" source="r8p-rTUP_P2dbKx-3tGq-42">
          <mxGeometry relative="1" as="geometry">
            <mxPoint x="930" y="1130" as="targetPoint" />
          </mxGeometry>
        </mxCell>
        <mxCell id="r8p-rTUP_P2dbKx-3tGq-45" value="" style="edgeStyle=none;rounded=0;orthogonalLoop=1;jettySize=auto;html=1;fontColor=#000000;" edge="1" parent="1" source="r8p-rTUP_P2dbKx-3tGq-42" target="r8p-rTUP_P2dbKx-3tGq-44">
          <mxGeometry relative="1" as="geometry" />
        </mxCell>
        <mxCell id="r8p-rTUP_P2dbKx-3tGq-47" value="" style="edgeStyle=none;rounded=0;orthogonalLoop=1;jettySize=auto;html=1;fontColor=#000000;" edge="1" parent="1" source="r8p-rTUP_P2dbKx-3tGq-42" target="r8p-rTUP_P2dbKx-3tGq-46">
          <mxGeometry relative="1" as="geometry" />
        </mxCell>
        <mxCell id="r8p-rTUP_P2dbKx-3tGq-42" value="Lobby" style="ellipse;whiteSpace=wrap;html=1;fillColor=#fff2cc;strokeColor=#d6b656;" vertex="1" parent="1">
          <mxGeometry x="930" y="1090" width="120" height="80" as="geometry" />
        </mxCell>
        <mxCell id="r8p-rTUP_P2dbKx-3tGq-44" value="Sanity Hall" style="whiteSpace=wrap;html=1;fillColor=#e1d5e7;strokeColor=#9673a6;" vertex="1" parent="1">
          <mxGeometry x="1120" y="1050" width="120" height="60" as="geometry" />
        </mxCell>
        <mxCell id="r8p-rTUP_P2dbKx-3tGq-46" value="E.C meeting hall" style="whiteSpace=wrap;html=1;fillColor=#e1d5e7;strokeColor=#9673a6;" vertex="1" parent="1">
          <mxGeometry x="1120" y="1130" width="120" height="60" as="geometry" />
        </mxCell>
        <mxCell id="r8p-rTUP_P2dbKx-3tGq-48" value="&lt;font color=&quot;#000000&quot;&gt;Conference Room&lt;/font&gt;" style="whiteSpace=wrap;html=1;fillColor=#e1d5e7;strokeColor=#9673a6;" vertex="1" parent="1">
          <mxGeometry x="1090" y="840" width="120" height="60" as="geometry" />
        </mxCell>
        <mxCell id="r8p-rTUP_P2dbKx-3tGq-50" value="V.c conference&amp;nbsp;" style="whiteSpace=wrap;html=1;fillColor=#e1d5e7;strokeColor=#9673a6;" vertex="1" parent="1">
          <mxGeometry x="1110" y="950" width="120" height="60" as="geometry" />
        </mxCell>
        <mxCell id="r8p-rTUP_P2dbKx-3tGq-57" value="" style="edgeStyle=none;rounded=0;orthogonalLoop=1;jettySize=auto;html=1;fontColor=#000000;" edge="1" parent="1" source="r8p-rTUP_P2dbKx-3tGq-54" target="r8p-rTUP_P2dbKx-3tGq-56">
          <mxGeometry relative="1" as="geometry" />
        </mxCell>
        <mxCell id="r8p-rTUP_P2dbKx-3tGq-54" value="Centre For P.g study" style="ellipse;whiteSpace=wrap;html=1;fillColor=#dae8fc;strokeColor=#6c8ebf;rounded=1;" vertex="1" parent="1">
          <mxGeometry x="446" y="810" width="120" height="60" as="geometry" />
        </mxCell>
        <mxCell id="r8p-rTUP_P2dbKx-3tGq-59" value="" style="edgeStyle=none;rounded=0;orthogonalLoop=1;jettySize=auto;html=1;fontColor=#000000;" edge="1" parent="1" source="r8p-rTUP_P2dbKx-3tGq-56" target="r8p-rTUP_P2dbKx-3tGq-58">
          <mxGeometry relative="1" as="geometry" />
        </mxCell>
        <mxCell id="r8p-rTUP_P2dbKx-3tGq-61" value="" style="edgeStyle=none;rounded=0;orthogonalLoop=1;jettySize=auto;html=1;fontColor=#000000;" edge="1" parent="1" source="r8p-rTUP_P2dbKx-3tGq-56" target="r8p-rTUP_P2dbKx-3tGq-60">
          <mxGeometry relative="1" as="geometry" />
        </mxCell>
        <mxCell id="r8p-rTUP_P2dbKx-3tGq-56" value="Block 2" style="ellipse;whiteSpace=wrap;html=1;fillColor=#dae8fc;strokeColor=#6c8ebf;rounded=1;" vertex="1" parent="1">
          <mxGeometry x="446" y="720" width="120" height="60" as="geometry" />
        </mxCell>
        <mxCell id="r8p-rTUP_P2dbKx-3tGq-63" value="" style="edgeStyle=none;rounded=0;orthogonalLoop=1;jettySize=auto;html=1;fontColor=#000000;" edge="1" parent="1" source="r8p-rTUP_P2dbKx-3tGq-58" target="r8p-rTUP_P2dbKx-3tGq-62">
          <mxGeometry relative="1" as="geometry" />
        </mxCell>
        <mxCell id="r8p-rTUP_P2dbKx-3tGq-65" value="" style="edgeStyle=none;rounded=0;orthogonalLoop=1;jettySize=auto;html=1;fontColor=#000000;" edge="1" parent="1" source="r8p-rTUP_P2dbKx-3tGq-58" target="r8p-rTUP_P2dbKx-3tGq-64">
          <mxGeometry relative="1" as="geometry" />
        </mxCell>
        <mxCell id="r8p-rTUP_P2dbKx-3tGq-67" value="" style="edgeStyle=none;rounded=0;orthogonalLoop=1;jettySize=auto;html=1;fontColor=#000000;" edge="1" parent="1" source="r8p-rTUP_P2dbKx-3tGq-58" target="r8p-rTUP_P2dbKx-3tGq-66">
          <mxGeometry relative="1" as="geometry" />
        </mxCell>
        <mxCell id="r8p-rTUP_P2dbKx-3tGq-58" value="Auditorium block" style="ellipse;whiteSpace=wrap;html=1;fillColor=#dae8fc;strokeColor=#6c8ebf;rounded=1;" vertex="1" parent="1">
          <mxGeometry x="446" y="580" width="120" height="60" as="geometry" />
        </mxCell>
        <mxCell id="r8p-rTUP_P2dbKx-3tGq-60" value="Block 1" style="ellipse;whiteSpace=wrap;html=1;fillColor=#dae8fc;strokeColor=#6c8ebf;rounded=1;" vertex="1" parent="1">
          <mxGeometry x="646" y="720" width="120" height="60" as="geometry" />
        </mxCell>
        <mxCell id="r8p-rTUP_P2dbKx-3tGq-62" value="fountain Lobby" style="ellipse;whiteSpace=wrap;html=1;fillColor=#dae8fc;strokeColor=#6c8ebf;rounded=1;" vertex="1" parent="1">
          <mxGeometry x="446" y="440" width="120" height="60" as="geometry" />
        </mxCell>
        <mxCell id="r8p-rTUP_P2dbKx-3tGq-64" value="Open Air Theatre" style="ellipse;whiteSpace=wrap;html=1;fillColor=#dae8fc;strokeColor=#6c8ebf;rounded=1;" vertex="1" parent="1">
          <mxGeometry x="646" y="580" width="120" height="60" as="geometry" />
        </mxCell>
        <mxCell id="r8p-rTUP_P2dbKx-3tGq-66" value="Auditorium&lt;br&gt;Lobby" style="ellipse;whiteSpace=wrap;html=1;fillColor=#dae8fc;strokeColor=#6c8ebf;rounded=1;" vertex="1" parent="1">
          <mxGeometry x="247" y="580" width="120" height="60" as="geometry" />
        </mxCell>
        <mxCell id="r8p-rTUP_P2dbKx-3tGq-70" style="edgeStyle=none;rounded=0;orthogonalLoop=1;jettySize=auto;html=1;fontColor=#000000;" edge="1" parent="1" source="r8p-rTUP_P2dbKx-3tGq-68">
          <mxGeometry relative="1" as="geometry">
            <mxPoint x="560" y="860" as="targetPoint" />
          </mxGeometry>
        </mxCell>
        <mxCell id="r8p-rTUP_P2dbKx-3tGq-72" value="" style="edgeStyle=none;rounded=0;orthogonalLoop=1;jettySize=auto;html=1;fontColor=#000000;" edge="1" parent="1" source="r8p-rTUP_P2dbKx-3tGq-68" target="r8p-rTUP_P2dbKx-3tGq-71">
          <mxGeometry relative="1" as="geometry" />
        </mxCell>
        <mxCell id="r8p-rTUP_P2dbKx-3tGq-68" value="Library Entrance" style="ellipse;whiteSpace=wrap;html=1;fillColor=#dae8fc;strokeColor=#6c8ebf;" vertex="1" parent="1">
          <mxGeometry x="620" y="860" width="120" height="80" as="geometry" />
        </mxCell>
        <mxCell id="r8p-rTUP_P2dbKx-3tGq-71" value="Library" style="whiteSpace=wrap;html=1;fillColor=#dae8fc;strokeColor=#6c8ebf;" vertex="1" parent="1">
          <mxGeometry x="765" y="830" width="120" height="60" as="geometry" />
        </mxCell>
      </root>
    </mxGraphModel>
  </diagram>
</mxfile>
